<?xml version="1.0" ?><svg viewBox="0 0 64 64" xmlns="http://www.w3.org/2000/svg"><g id="news"><path d="M3,55v2a4,4,0,0,0,4,4H57a4,4,0,0,0,4-4V55H42v2H22V55Z" style="fill:none;stroke:#0a1c28;stroke-linejoin:round;stroke-width:2px"/><path d="M56,8H46.3a22.6,22.6,0,0,1,3.94,4H56a2,2,0,0,1,2,2V46a2,2,0,0,1-2,2H8a2,2,0,0,1-2-2V14a2,2,0,0,1,2-2h5.76A22.6,22.6,0,0,1,17.7,8H8a6,6,0,0,0-6,6V46a6,6,0,0,0,6,6H56a6,6,0,0,0,6-6V14A6,6,0,0,0,56,8Z" style="fill:#0a1c28"/><path d="M48,31a3,3,0,0,1-3-3h2a1,1,0,1,0,1-1,3,3,0,1,1,3-3H49a1,1,0,1,0-1,1,3,3,0,0,1,0,6Z" style="fill:#0a1c28"/><polygon points="23 31 30 31 30 29 25 29 25 27 28 27 28 25 25 25 25 23 30 23 30 21 23 21 23 31" style="fill:#0a1c28"/><polygon points="35 31 37 31 38 26.61 39 31 41 31 44 21 42 21 40.15 27.04 39 22 37 22 35.85 27.04 34 21 32 21 35 31" style="fill:#0a1c28"/><polygon points="19 21 19 27.39 15.17 21 13 21 13 31 15 31 15 24.61 18.83 31 21 31 21 21 19 21" style="fill:#0a1c28"/><path d="M55,26a23,23,0,1,1-5.31-14.69A23,23,0,0,1,55,26Z" style="fill:none;stroke:#0a1c28;stroke-miterlimit:10;stroke-width:2px"/><path d="M41,19c0-9-4.09-16-9-16s-9,7-9,16" style="fill:none;stroke:#0a1c28;stroke-miterlimit:10;stroke-width:2px"/><path d="M41,33c0,9-4.09,16-9,16s-9-7-9-16" style="fill:none;stroke:#0a1c28;stroke-miterlimit:10;stroke-width:2px"/><path d="M49.69,11.31C46,13.53,39.43,15,32,15s-14-1.47-17.69-3.69" style="fill:none;stroke:#0a1c28;stroke-miterlimit:10;stroke-width:2px"/><path d="M49.69,40.69C46,38.47,39.43,37,32,37s-14,1.47-17.69,3.69" style="fill:none;stroke:#0a1c28;stroke-miterlimit:10;stroke-width:2px"/></g></svg>